<?xml version="1.0" encoding="UTF-8" standalone="no"?>
<svg width="36px" height="36px" viewBox="0 0 36 36" version="1.1" xmlns="http://www.w3.org/2000/svg" xmlns:xlink="http://www.w3.org/1999/xlink" xmlns:sketch="http://www.bohemiancoding.com/sketch/ns">
    <!-- Generator: Sketch 3.3.3 (12081) - http://www.bohemiancoding.com/sketch -->
    <title>envelope</title>
    <desc>Created with Sketch.</desc>
    <defs></defs>
    <g id="Page-1" stroke="none" stroke-width="1" fill="none" fill-rule="evenodd" sketch:type="MSPage">
        <g id="envelope" sketch:type="MSLayerGroup" fill="#3498DB">
            <path d="M18,36 C16.344,36 14.748,35.784 13.212,35.352 C11.676,34.9198235 10.242,34.314 8.91,33.534 C7.578,32.754 6.366,31.818 5.274,30.726 C4.182,29.6341176 3.246,28.422 2.466,27.09 C1.686,25.7578824 1.08,24.324 0.648,22.7879412 C0.216,21.252 0,19.656 0,18 C0,16.344 0.216,14.748 0.648,13.212 C1.08,11.676 1.686,10.242 2.466,8.91 C3.246,7.578 4.182,6.366 5.274,5.274 C6.366,4.182 7.578,3.246 8.91,2.466 C10.242,1.686 11.676,1.08 13.212,0.648 C14.748,0.216 16.344,0 18,0 C20.472,0 22.806,0.474 25.002,1.422 C27.198,2.37 29.106,3.654 30.726,5.274 C32.346,6.894 33.63,8.802 34.578,10.998 C35.526,13.194 36,15.528 36,18 C36,19.656 35.784,21.252 35.352,22.788 C34.9198235,24.3238235 34.314,25.7578235 33.534,27.09 C32.754,28.422 31.818,29.634 30.726,30.726 C29.6341176,31.818 28.422,32.7541765 27.09,33.534 C25.7578824,34.314 24.324,34.92 22.7878824,35.352 C21.252,35.784 19.656,36 18,36 L18,36 Z M26.676,10.584 L9.612,10.584 C9.444,10.584 9.3,10.638 9.18,10.746 C9.06,10.854 9,11.004 9,11.196 L9,13.104 C9,13.2 9.036,13.248 9.108,13.248 L18.072,18.36 L18.1441765,18.396 C18.192,18.396 18.2281765,18.384 18.2521765,18.36 L26.9281765,13.248 C26.976,13.224 27.0121765,13.212 27.0361765,13.212 C27.06,13.212 27.0961765,13.2 27.1441765,13.176 C27.2401765,13.176 27.2881765,13.128 27.2881765,13.032 L27.2881765,11.196 C27.2881765,11.004 27.2281176,10.854 27.108,10.746 C26.9878824,10.638 26.844,10.584 26.676,10.584 L26.676,10.584 Z M14.436,18.252 C14.46,18.228 14.472,18.1919412 14.472,18.144 C14.472,18.0718235 14.448,18.036 14.4,18.036 L9.252,15.0839412 C9.18,15.0599412 9.12,15.0599412 9.072,15.0839412 C9.024,15.0839412 9,15.1199412 9,15.1919412 L9,22.9319412 C9,23.0041176 9.036,23.0519412 9.108,23.0759412 L9.18,23.0759412 C9.228,23.0759412 9.252,23.0639412 9.252,23.0399412 L14.436,18.252 L14.436,18.252 Z M20.7,18.828 C20.676,18.7558235 20.6158235,18.744 20.5198235,18.792 L18.5398235,19.944 C18.2998235,20.088 18.048,20.088 17.7838235,19.944 L16.0558235,18.9721765 C15.9838235,18.9241765 15.9238235,18.9241765 15.8758235,18.9721765 L9.28782353,25.0921765 C9.26382353,25.116 9.25182353,25.1641765 9.25182353,25.236 C9.25182353,25.26 9.27582353,25.2960588 9.32382353,25.344 C9.46782353,25.392 9.56382353,25.4161765 9.61182353,25.4161765 L26.4958824,25.4161765 C26.5438824,25.4161765 26.5920588,25.3921765 26.6398824,25.344 C26.6398824,25.248 26.6278824,25.1881765 26.6038824,25.164 L20.7,18.828 L20.7,18.828 Z M27.18,14.94 L27.0361765,14.94 L22.1401765,17.856 C22.0923529,17.856 22.0681765,17.892 22.0681765,17.964 C22.0441765,17.988 22.0561765,18.024 22.104,18.0718235 L27,23.364 C27.048,23.412 27.084,23.4361765 27.108,23.4361765 L27.18,23.4361765 C27.2521765,23.364 27.2881765,23.3161765 27.2881765,23.2921765 L27.2881765,15.0840588 C27.288,15.036 27.252,14.988 27.18,14.94 L27.18,14.94 Z" sketch:type="MSShapeGroup"></path>
        </g>
    </g>
</svg>