<?xml version="1.0" encoding="UTF-8" standalone="no"?>
<svg width="36px" height="36px" viewBox="0 0 36 36" version="1.1" xmlns="http://www.w3.org/2000/svg" xmlns:xlink="http://www.w3.org/1999/xlink" xmlns:sketch="http://www.bohemiancoding.com/sketch/ns">
    <!-- Generator: Sketch 3.3.3 (12081) - http://www.bohemiancoding.com/sketch -->
    <title>linkedin</title>
    <desc>Created with Sketch.</desc>
    <defs></defs>
    <g id="Page-1" stroke="none" stroke-width="1" fill="none" fill-rule="evenodd" sketch:type="MSPage">
        <g id="linkedin" sketch:type="MSLayerGroup" fill="#007AB9">
            <path d="M17.9775277,0 C8.04943737,0 0,8.04943737 0,17.9775277 C0,27.9056181 8.04943737,35.9550554 17.9775277,35.9550554 C27.9056181,35.9550554 35.9550554,27.9056181 35.9550554,17.9775277 C35.9550554,8.04721971 27.9056181,0 17.9775277,0 L17.9775277,0 Z M13.4831458,26.6853881 L8.98876386,26.6853881 L8.98876386,10.9550144 L13.4831458,10.9550144 L13.4831458,26.6853881 L13.4831458,26.6853881 Z M11.3752608,9.99099795 C10.2112115,9.99099795 9.26966735,9.04716222 9.26966735,7.88311294 C9.26966735,6.71906366 10.2135031,5.77522793 11.3752608,5.77522793 C12.5393101,5.77744559 13.4831458,6.72128131 13.4831458,7.88311294 C13.4831458,9.04716222 12.5393101,9.99099795 11.3752608,9.99099795 L11.3752608,9.99099795 Z M29.2134456,26.6853881 L24.7190637,26.6853881 L24.7190637,16.9595483 C24.7190637,15.8201889 24.3932156,15.0224969 22.9932074,15.0224969 C20.6718357,15.0224969 20.2246817,16.9595483 20.2246817,16.9595483 L20.2246817,26.6853881 L15.7302998,26.6853881 L15.7302998,10.9550144 L20.2246817,10.9550144 L20.2246817,12.4583655 C20.8673593,11.9662669 22.4718357,10.957232 24.7190637,10.957232 C26.1752526,10.957232 29.2134456,11.8291417 29.2134456,17.0965257 L29.2134456,26.6853881 L29.2134456,26.6853881 Z" sketch:type="MSShapeGroup"></path>
        </g>
    </g>
</svg>