<?xml version="1.0" encoding="UTF-8" standalone="no"?>
<svg width="154px" height="154px" viewBox="0 0 154 154" version="1.1" xmlns="http://www.w3.org/2000/svg" xmlns:xlink="http://www.w3.org/1999/xlink">
    <title>Logo</title>
    <desc>Itta Youth NGO</desc>
    <defs>
        <linearGradient x1="50%" y1="22.6622499%" x2="82.7478484%" y2="100%" id="linearGradient-1">
            <stop stop-color="#2AA3E5" offset="0%"></stop>
            <stop stop-color="#2A5770" offset="100%"></stop>
        </linearGradient>
        <linearGradient x1="34.629958%" y1="10.7940697%" x2="0%" y2="100%" id="linearGradient-2">
            <stop stop-color="#1881BA" offset="0%"></stop>
            <stop stop-color="#1EA1E4" offset="100%"></stop>
        </linearGradient>
        <linearGradient x1="100%" y1="50%" x2="0%" y2="100%" id="linearGradient-3">
            <stop stop-color="#3595C9" offset="0%"></stop>
            <stop stop-color="#60B2DF" offset="100%"></stop>
        </linearGradient>
        <linearGradient x1="162.197361%" y1="36.0786681%" x2="100%" y2="100%" id="linearGradient-4">
            <stop stop-color="#1D84BD" offset="0%"></stop>
            <stop stop-color="#2C7095" offset="100%"></stop>
        </linearGradient>
        <linearGradient x1="100%" y1="37.0231483%" x2="50%" y2="100%" id="linearGradient-5">
            <stop stop-color="#24A3E8" offset="0%"></stop>
            <stop stop-color="#7DBFE3" offset="100%"></stop>
        </linearGradient>
    </defs>
    <g id="Page-1" stroke="none" stroke-width="1" fill="none" fill-rule="evenodd">
        <g id="Logo">
            <path d="M29,154 L77,114 L103,91 L102,62 L129,60 L102,48 L88,64 L54,4 L63,49 L29,22 L65,104.002365 L29,154 Z" id="Pink-bird" fill="#DF678A"></path>
            <g id="Blue-bird" transform="translate(26.000000, 0.000000)">
                <path d="M36,100 L44,90 L35,46 L0,18 L36,100 Z" id="Left-Wing" fill="url(#linearGradient-1)"></path>
                <polygon id="Teil" fill="url(#linearGradient-2)" points="36 100 0 150 48 110 44 89 "></polygon>
                <polygon id="Nose" fill="url(#linearGradient-3)" points="73 44 100 56 73 58 "></polygon>
                <polygon id="Head" fill="url(#linearGradient-4)" points="73 44 73 58 74 87 58 61 "></polygon>
                <polygon id="Right-Wing" fill="url(#linearGradient-5)" points="44 90 34 45 25 1.33226763e-15 59 60 74 87 48 110 "></polygon>
            </g>
        </g>
    </g>
</svg>
