<?xml version="1.0" encoding="UTF-8" standalone="no"?>
<svg width="36px" height="36px" viewBox="0 0 36 36" version="1.1" xmlns="http://www.w3.org/2000/svg" xmlns:xlink="http://www.w3.org/1999/xlink" xmlns:sketch="http://www.bohemiancoding.com/sketch/ns">
    <!-- Generator: Sketch 3.3.3 (12081) - http://www.bohemiancoding.com/sketch -->
    <title>vk</title>
    <desc>Created with Sketch.</desc>
    <defs></defs>
    <g id="Page-1" stroke="none" stroke-width="1" fill="none" fill-rule="evenodd" sketch:type="MSPage">
        <g id="vk-social-logotype" sketch:type="MSLayerGroup" fill="#4E729A">
            <path d="M17.9540816,0 C8.03865306,0 0,8.03828571 0,17.9540816 C0,27.8698776 8.03865306,35.9081633 17.9540816,35.9081633 C27.8695102,35.9081633 35.9081633,27.8698776 35.9081633,17.9540816 C35.9081633,8.03828571 27.8695102,0 17.9540816,0 L17.9540816,0 Z M27.0613469,19.8958776 C27.8981633,20.7132245 28.7834694,21.482449 29.5346939,22.3842857 C29.8675102,22.7832245 30.1812245,23.1957551 30.42,23.6597143 C30.760898,24.3213061 30.4530612,25.0468163 29.860898,25.0861224 L26.1826531,25.0853878 C25.2326939,25.164 24.4766939,24.7808571 23.8393469,24.1313878 C23.3305714,23.6137959 22.8585306,23.0609388 22.3684898,22.5257143 C22.1682857,22.3060408 21.9574286,22.0992245 21.7061633,21.9364898 C21.2047347,21.6102857 20.7690612,21.7102041 20.4817959,22.2340408 C20.1890204,22.7670612 20.1221633,23.3577551 20.0942449,23.9510204 C20.0542041,24.8183265 19.7926531,25.0449796 18.9224082,25.0857551 C17.062898,25.1728163 15.2985306,24.8906939 13.6586939,23.9532245 C12.2120816,23.1263265 11.0924082,21.9592653 10.1167347,20.6379184 C8.21681633,18.0620816 6.7617551,15.2349796 5.45436735,12.3266939 C5.16012245,11.6717143 5.37538776,11.3212653 6.09795918,11.3076735 C7.29844898,11.2845306 8.49893878,11.2874694 9.69942857,11.3065714 C10.188,11.3142857 10.5112653,11.5938367 10.6989796,12.0548571 C11.3477143,13.6509796 12.1430204,15.1695918 13.1396327,16.578 C13.4052245,16.9530612 13.6763265,17.3270204 14.0624082,17.5918776 C14.4885306,17.8842857 14.8132653,17.7876735 15.0142041,17.3119592 C15.1427755,17.0096327 15.1982449,16.6863673 15.2261633,16.3623673 C15.3216735,15.2526122 15.3330612,14.1432245 15.1677551,13.0378776 C15.064898,12.3461633 14.6758776,11.8994694 13.9863673,11.7686939 C13.6351837,11.7022041 13.6866122,11.5721633 13.8574286,11.3715918 C14.1538776,11.0248163 14.4315918,10.8102857 14.9866531,10.8102857 L19.142449,10.809551 C19.7974286,10.9381224 19.9443673,11.232 20.0332653,11.8917551 L20.0369388,16.5100408 C20.0292245,16.7653469 20.1651429,17.5220816 20.6235918,17.6892245 C20.9909388,17.810449 21.2333878,17.5158367 21.4530612,17.2833061 C22.4496735,16.2257143 23.1597551,14.9774694 23.7956327,13.6855102 C24.0762857,13.1157551 24.3183673,12.5261633 24.5534694,11.9354694 C24.7283265,11.4986939 25.0001633,11.2837959 25.4931429,11.2911429 L29.4950204,11.2959184 C29.6129388,11.2959184 29.7326939,11.2970204 29.8495102,11.3172245 C30.5239592,11.4325714 30.7087347,11.7227755 30.5000816,12.3806939 C30.1716735,13.4144082 29.5335918,14.2754694 28.9098367,15.1387347 C28.2412653,16.0629796 27.5282449,16.954898 26.8662857,17.8831837 C26.2579592,18.7317551 26.3060816,19.1589796 27.0613469,19.8958776 L27.0613469,19.8958776 Z" id="Shape" sketch:type="MSShapeGroup"></path>
        </g>
    </g>
</svg>