<?xml version="1.0" standalone="no"?>
<!DOCTYPE svg PUBLIC "-//W3C//DTD SVG 20010904//EN"
 "http://www.w3.org/TR/2001/REC-SVG-20010904/DTD/svg10.dtd">
<svg version="1.0" xmlns="http://www.w3.org/2000/svg"
 width="700.000000pt" height="700.000000pt" viewBox="0 0 700.000000 700.000000"
 preserveAspectRatio="xMidYMid meet">
<metadata>
Created by potrace 1.11, written by Peter Selinger 2001-2013
</metadata>
<g transform="translate(0.000000,700.000000) scale(0.100000,-0.100000)"
fill="#000000" stroke="none">
<path d="M2323 6975 c3 -11 9 -38 13 -60 4 -22 8 -47 10 -55 1 -8 12 -60 23
-115 11 -55 22 -111 25 -125 2 -14 7 -36 10 -50 3 -14 8 -36 10 -50 2 -14 7
-36 10 -50 3 -14 8 -36 10 -50 2 -14 11 -59 20 -100 8 -41 17 -86 20 -100 2
-14 16 -81 30 -150 14 -69 27 -136 30 -150 2 -14 32 -162 66 -330 34 -168 64
-316 66 -330 3 -14 11 -56 19 -95 8 -38 16 -81 19 -95 2 -14 9 -45 15 -70 5
-24 8 -46 6 -48 -3 -3 -33 19 -64 48 -9 8 -32 26 -51 40 -19 14 -46 34 -60 46
-22 20 -53 44 -186 149 -20 17 -42 35 -48 40 -6 6 -27 22 -46 36 -19 15 -45
35 -56 45 -12 11 -36 30 -55 44 -18 14 -71 57 -119 95 -47 39 -105 86 -130
105 -25 19 -47 37 -50 40 -3 3 -18 16 -35 28 -16 13 -43 34 -60 47 -16 13 -84
67 -150 120 -66 53 -129 104 -140 113 -11 10 -38 31 -60 47 -22 16 -42 32 -45
35 -3 4 -39 33 -80 65 -41 32 -78 64 -82 69 -4 6 -10 8 -13 5 -3 -4 24 -73 61
-155 36 -82 101 -230 144 -329 80 -184 183 -419 218 -497 11 -24 58 -131 105
-238 47 -107 110 -251 140 -320 30 -69 146 -332 257 -585 111 -253 210 -478
220 -500 10 -22 48 -109 84 -193 37 -84 77 -176 90 -205 13 -28 47 -106 76
-172 70 -163 89 -207 100 -230 6 -11 37 -81 69 -155 l60 -134 -37 -51 c-19
-27 -104 -144 -186 -258 -83 -115 -158 -219 -166 -231 -8 -13 -23 -34 -33 -47
-17 -23 -292 -404 -464 -644 -47 -66 -100 -139 -117 -162 -17 -23 -119 -164
-226 -314 -254 -354 -367 -512 -378 -524 -22 -27 -23 -38 -1 -19 13 12 146
122 294 246 149 124 286 238 305 254 19 16 30 22 25 14 -9 -15 -167 -235 -182
-255 -5 -5 -31 -41 -58 -80 -27 -38 -98 -137 -157 -218 -59 -81 -108 -150
-108 -152 0 -4 192 153 280 228 14 12 63 53 110 92 47 38 87 72 90 75 3 3 84
71 180 150 96 79 177 147 180 150 5 5 90 75 134 110 10 8 26 22 35 31 9 8 38
33 66 55 27 21 63 51 80 65 16 15 64 54 105 88 41 35 84 70 95 79 11 9 45 37
75 62 30 25 59 50 65 56 5 6 35 30 65 55 30 24 66 54 80 66 14 11 59 49 100
83 41 34 84 69 95 78 49 41 222 186 245 205 34 28 154 130 160 137 3 3 77 68
165 145 87 77 166 147 175 155 9 8 49 44 89 80 41 36 84 74 96 85 13 11 53 47
90 80 38 33 73 65 79 70 6 6 47 41 91 80 44 38 82 72 85 75 3 3 58 52 123 109
l118 104 -6 191 c-3 105 -8 247 -10 316 -12 306 -15 397 -21 580 -3 107 -7
197 -9 200 -8 13 16 35 37 36 27 1 227 15 278 19 19 1 76 6 125 9 50 4 115 8
145 11 30 2 91 7 135 10 44 3 105 8 135 10 48 4 143 11 260 20 19 2 51 3 70 4
19 1 30 5 25 9 -6 5 -85 42 -177 82 -92 41 -166 75 -165 76 1 1 47 5 102 9 93
7 115 10 104 18 -2 2 -49 23 -104 46 -55 24 -226 100 -380 168 -154 69 -320
143 -370 165 -49 22 -115 51 -145 65 -30 14 -64 29 -75 34 -11 4 -46 20 -78
33 l-58 25 -27 -31 c-15 -17 -32 -36 -37 -42 -8 -9 -40 -45 -170 -192 -5 -6
-37 -42 -70 -80 -33 -37 -98 -111 -145 -164 -47 -53 -104 -117 -126 -143 l-42
-47 -16 25 c-9 13 -16 26 -16 29 0 2 -15 31 -34 63 -33 56 -337 592 -388 683
-14 25 -119 212 -235 415 -115 204 -221 390 -235 415 -14 25 -82 145 -152 268
-70 123 -136 240 -147 260 -11 20 -24 44 -29 52 -24 39 -100 172 -100 175 0 2
-16 30 -36 62 -33 54 -35 56 -29 23 5 -31 1 -27 -34 33 -23 38 -41 70 -41 72
0 1 -16 29 -36 61 -20 33 -33 50 -31 39z"/>
</g>
</svg>
